<svg width="147" height="37" viewBox="0 0 147 37" fill="none" xmlns="http://www.w3.org/2000/svg">
<path fill-rule="evenodd" clip-rule="evenodd" d="M68.8545 18.4656C68.8545 28.6647 77.1209 36.9311 87.3201 36.9311C97.5192 36.9311 105.786 28.6647 105.786 18.4656C105.786 8.2664 97.5224 0 87.3232 0C77.124 0 68.8545 8.2664 68.8545 18.4656Z" fill="white"/>
<path fill-rule="evenodd" clip-rule="evenodd" d="M0.028039 32.496L8.35046 1.26044C8.44383 0.905637 8.75507 0.669098 9.12233 0.669098H17.9863C18.2415 0.669098 18.4625 0.77803 18.6181 0.980333C18.7737 1.18264 18.8235 1.4254 18.7551 1.67127L12.3125 25.7297C12.2471 25.9787 12.2938 26.2184 12.4494 26.4207C12.605 26.623 12.826 26.7319 13.0812 26.7319H30.2023C30.4575 26.7319 30.6785 26.8408 30.8372 27.0432C30.9928 27.2455 31.0395 27.4882 30.9741 27.7372L29.5798 32.9068C29.4833 33.2585 29.1752 33.4982 28.8111 33.4982H0.799902C0.544689 33.4982 0.323712 33.3892 0.168095 33.1869C0.0124773 32.9846 -0.0373203 32.745 0.028039 32.496Z" fill="white"/>
<path fill-rule="evenodd" clip-rule="evenodd" d="M42.6984 0.669098H68.6616C68.9666 0.669098 69.2311 0.799817 69.4179 1.04258C69.6046 1.28534 69.6638 1.57168 69.5859 1.87046L69.4148 2.52095C68.1729 3.91217 67.093 5.44967 66.1997 7.10232C66.0845 7.31396 65.8791 7.43535 65.6395 7.43535H50.8652C50.4232 7.43535 50.0528 7.72168 49.9408 8.14807L48.811 12.4276C48.7332 12.7232 48.7923 13.0127 48.9791 13.2554C49.1658 13.4982 49.4304 13.6289 49.7385 13.6289H62.9535C63.2617 13.6289 63.5262 13.7596 63.7129 14.0024C63.8997 14.2452 63.9588 14.5346 63.881 14.8303L62.6236 19.586C62.5116 20.0124 62.1381 20.2987 61.6993 20.2987H47.4665C47.0276 20.2987 46.6573 20.5819 46.5421 21.0083L45.2972 25.6208C45.2162 25.9196 45.2754 26.209 45.4621 26.4518C45.6489 26.6977 45.9134 26.8284 46.2215 26.8284H63.9401C64.2483 26.8284 64.5128 26.9591 64.6996 27.205C64.8863 27.4509 64.9423 27.7403 64.8614 28.0391L63.5604 32.7948C63.4453 33.2181 63.0749 33.5013 62.6361 33.5013H33.8748C33.6196 33.5013 33.3986 33.3923 33.243 33.19C33.0874 32.9877 33.0376 32.745 33.1061 32.4991L41.3009 1.73663C41.4814 1.09549 42.0385 0.669098 42.6984 0.669098Z" fill="white"/>
<path fill-rule="evenodd" clip-rule="evenodd" d="M119.766 16.648L115.518 32.9412C115.431 33.2742 115.141 33.5014 114.796 33.4983L105.823 33.4422C105.636 33.4422 105.474 33.3613 105.359 33.215C105.244 33.0656 105.207 32.8882 105.257 32.7077L105.272 32.6548C108.36 28.755 110.202 23.8251 110.202 18.4656C110.202 17.5475 110.146 16.6449 110.04 15.7548C110.003 15.4373 110.022 15.1572 110.106 14.8491L113.713 1.56866C113.859 1.02711 114.332 0.666077 114.892 0.666077H121.811C122.278 0.666077 122.676 0.90884 122.894 1.31967L131.811 18.2789C131.873 18.3971 131.995 18.4625 132.129 18.4469C132.262 18.4314 132.365 18.3411 132.402 18.2135L137.192 0.669189H146.2C146.439 0.669189 146.645 0.771897 146.791 0.958638C146.937 1.14849 146.981 1.37258 146.922 1.60289L138.665 32.5895C138.518 33.1341 138.045 33.4983 137.482 33.4983H130.719C130.267 33.4983 129.878 33.2742 129.657 32.882L120.355 16.5702C120.289 16.455 120.168 16.3959 120.037 16.4115C119.9 16.4301 119.801 16.5204 119.766 16.648Z" fill="white"/>
<path fill-rule="evenodd" clip-rule="evenodd" d="M84.8458 0.165039C78.6024 1.00226 73.3488 4.95495 70.7002 10.4109L80.2769 8.54349L84.8458 0.165039ZM69.0942 15.5058C68.9386 16.4706 68.8577 17.4573 68.8577 18.4657C68.8577 23.7037 71.0394 28.4314 74.5439 31.7927L75.6457 22.409L69.0942 15.5058ZM79.0568 34.9829C81.5436 36.231 84.3509 36.9312 87.3201 36.9312C90.3702 36.9312 93.2491 36.1905 95.7826 34.8802L87.4664 30.9462L79.0568 34.9829ZM100.585 31.3134C103.806 27.9894 105.789 23.461 105.789 18.4657C105.789 17.5755 105.723 16.6978 105.602 15.8419L99.4832 22.4401L100.585 31.3134ZM103.847 10.2179C101.26 5.04832 96.3179 1.26059 90.4294 0.264634L94.9236 8.63686L103.847 10.2179Z" fill="#D71A1A"/>
<path fill-rule="evenodd" clip-rule="evenodd" d="M87.261 27.2921L91.3973 24.2887L95.5336 21.2822L93.9556 16.4207L92.3746 11.5561H87.261H82.1505L80.5694 16.4207L78.9915 21.2822L83.1278 24.2887L87.261 27.2921Z" fill="#D71A1A"/>
</svg>
